<svg id="Layer_1" data-name="Layer 1" xmlns="http://www.w3.org/2000/svg" viewBox="0 0 16.1 15.6"><defs><style>.cls-1{fill:#414141;}</style></defs><title>attachment-fill</title><g id="icons"><g id="icn_attachment_16x16" data-name="icn attachment 16x16"><g id="Page-1"><path class="cls-1" d="M5.91,16.85A4.7,4.7,0,0,1,2.32,9.14L7.08,3.44a.5.5,0,0,1,.77.64L3.08,9.78a3.69,3.69,0,0,0,5.66,4.75l7-8.37a2.38,2.38,0,0,0-.29-3.36,2.39,2.39,0,0,0-1.74-.55,2.37,2.37,0,0,0-1.62.84L5,11.6A1.07,1.07,0,0,0,6.61,13l4.52-5.39a.5.5,0,0,1,.77.64L7.38,13.62A2.07,2.07,0,0,1,4.21,11l7.14-8.51A3.38,3.38,0,0,1,16.53,6.8l-7,8.37a4.65,4.65,0,0,1-3.19,1.66Z" transform="translate(-1.22 -1.24)"/></g></g></g></svg>