<svg id="Layer_1" data-name="Layer 1" xmlns="http://www.w3.org/2000/svg" viewBox="0 0 17.11 17.12"><defs><style>.cls-1{fill:#414141;}</style></defs><title>pencil-compound</title><path class="cls-1" d="M16.52,2,15.11.57h0a2,2,0,0,0-2.83,0L2,10.81a2,2,0,0,0-.51.87L0,17.1l5.42-1.54a2,2,0,0,0,.71-.39.5.5,0,0,0,.16-.11l0-.06,8.3-8.31a.49.49,0,0,0,.11-.08.49.49,0,0,0,.08-.12l1.31-1.31,0,0,0,0,.33-.33h0A2,2,0,0,0,16.52,2Zm-14,10a1,1,0,0,1,.26-.43L10.87,3.4l2.84,2.84L6,14l-1.8-1.8a.5.5,0,0,0-.74.67l1.73,1.74-3.68,1ZM15.82,4.1,14.76,3a.5.5,0,0,0-.71.71l1.07,1.06-.73.73L11.56,2.71,13,1.28a1,1,0,0,1,1.41,0L15.82,2.7A1,1,0,0,1,15.82,4.1Z" transform="translate(0 0.02)"/></svg>